<svg xmlns="http://www.w3.org/2000/svg" xmlns:xlink="http://www.w3.org/1999/xlink" width="64" height="64" fill="none" xmlns:v="https://vecta.io/nano"><style><![CDATA[.B{fill:#390075}.C{fill:#fff}.D{opacity:.55}.E{opacity:.3}.F{fill:#ff1d1d}.G{fill:#8b90af}.H{fill:#29beff}]]></style><path d="M54.741 59.022c0 .446-10.016.807-22.37.807S10 59.468 10 59.022c0-.155 1.203-.299 3.289-.422h38.163c2.086.123 3.289.267 3.289.422z" class="B E"/><path d="M31.849 59.62c14.807 0 26.81-12.003 26.81-26.81S46.656 6 31.849 6 5.039 18.003 5.039 32.81s12.003 26.81 26.81 26.81z" fill="#00e7ff"/><path d="M45.103 15.205c2.266 0 4.103-1.837 4.103-4.103S47.369 7 45.103 7 41 8.837 41 11.103s1.837 4.103 4.103 4.103z" fill="#ffe75a"/><path d="M15.537 30.017c-.104 0-.207.011-.308.033a.95.95 0 0 0-.838-1.043.95.95 0 0 0-1.053.825 1.83 1.83 0 0 0-3.134 1.103 1.04 1.04 0 0 0-.19-.018 1.01 1.01 0 0 0-.716.297c-.19.19-.298.447-.298.716a1.01 1.01 0 0 0 .297.716c.19.19.448.297.716.297h5.523c.388 0 .76-.154 1.035-.429A1.46 1.46 0 0 0 17 31.48c0-.388-.154-.76-.429-1.035s-.647-.429-1.035-.429v.001zm11.486-7.393a.69.69 0 0 1-.688.688h-5.307a1.05 1.05 0 0 1-1.049-1.15 1.05 1.05 0 0 1 1.246-.933 1.9 1.9 0 0 1 3.632-.582 1.37 1.37 0 0 1 .243-.023 1.34 1.34 0 0 1 .941.385c.251.247.396.582.402.934a.69.69 0 0 1 .581.68zm-12.358-5.958a1.87 1.87 0 0 0-.557-1.296 1.86 1.86 0 0 0-1.306-.534 1.89 1.89 0 0 0-.337.032 2.64 2.64 0 0 0-1.113-1.235c-.494-.281-1.067-.394-1.631-.322a2.64 2.64 0 0 0-1.499.719c-.409.395-.679.912-.77 1.474a1.54 1.54 0 0 0-.675.018c-.221.056-.427.16-.603.305s-.318.327-.415.533-.148.431-.147.66a1.02 1.02 0 0 0-.376-.243.92.92 0 0 0-1.231.937.92.92 0 0 0 .919.851h9.593c.241.001.474-.089.651-.252a.96.96 0 0 0 .306-.628c.019-.24-.054-.479-.204-.668a.96.96 0 0 0-.604-.351v.001zM61.36 27.648a1.87 1.87 0 0 0-.557-1.296 1.86 1.86 0 0 0-1.306-.534 1.89 1.89 0 0 0-.337.032 2.64 2.64 0 0 0-1.113-1.235c-.494-.281-1.067-.393-1.631-.322s-1.09.324-1.499.719-.679.912-.77 1.473a1.56 1.56 0 0 0-.676.017c-.222.055-.427.16-.603.305s-.318.327-.415.534-.147.432-.147.66a1.03 1.03 0 0 0-.376-.243.92.92 0 0 0-1.231.937.92.92 0 0 0 .918.851h9.593c.241.001.474-.089.651-.252a.96.96 0 0 0 .306-.628c.019-.24-.054-.479-.204-.668s-.365-.314-.604-.351v.001z" class="C"/><path d="M18.147 52.603a2.49 2.49 0 0 1-2.459 2.487 2.5 2.5 0 0 1-2.516-2.451c-.01-.585.189-1.155.559-1.608.308-.377.375-.896.2-1.352a1.85 1.85 0 0 1 .207-1.711 1.85 1.85 0 0 1 1.528-.796 1.85 1.85 0 0 1 1.521.81 1.85 1.85 0 0 1 .308.833c.034.298-.006.601-.116.88-.18.458-.084.972.224 1.357.352.44.544.987.543 1.551z" fill="#30ce52"/><g class="E B"><path d="M17.182 54.57a2.47 2.47 0 0 1-1.495.521c-1.36.015-2.496-1.091-2.516-2.451a2.48 2.48 0 0 1 .559-1.608c.308-.377.375-.896.2-1.352a1.85 1.85 0 0 1 .072-1.481 1.85 1.85 0 0 1 1.136-.953c-.287.248-.49.578-.583.946a1.85 1.85 0 0 0 .065 1.109c.175.455.108.974-.2 1.352-.371.453-.569 1.023-.559 1.608.019 1.36 1.155 2.466 2.516 2.451a2.48 2.48 0 0 0 .805-.143z"/></g><g class="D C"><path d="M18.147 52.603c0 .422-.107.837-.311 1.206s-.5.68-.858.903c.466-.425.752-1.012.802-1.641a2.49 2.49 0 0 0-.534-1.746c-.308-.385-.404-.898-.224-1.357a1.85 1.85 0 0 0-.518-2.079 1.85 1.85 0 0 0-2.134-.193 1.85 1.85 0 0 1 2.312-.216 1.85 1.85 0 0 1 .699 2.214c-.18.459-.084.972.224 1.357.352.44.543.987.542 1.551z"/></g><g class="B"><path d="M15.659 55.262c-1.448 0-2.637-1.169-2.659-2.62a2.66 2.66 0 0 1 .598-1.719c.262-.322.329-.775.173-1.182a2.01 2.01 0 0 1-.133-.721c0-1.114.906-2.02 2.02-2.02s2.02.906 2.02 2.02a2.01 2.01 0 0 1-.139.737c-.153.388-.077.843.198 1.188a2.63 2.63 0 0 1 .58 1.658 2.67 2.67 0 0 1-2.628 2.658h-.03zm0-7.919a1.68 1.68 0 0 0-1.677 1.678 1.67 1.67 0 0 0 .11.598c.2.522.112 1.104-.228 1.521a2.32 2.32 0 0 0 1.796 3.78h.027c1.262-.014 2.29-1.053 2.29-2.316a2.29 2.29 0 0 0-.505-1.444 1.55 1.55 0 0 1-.249-1.526c.077-.195.116-.403.115-.612a1.68 1.68 0 0 0-1.678-1.678h0z"/><path d="M15.66 58.802a.17.17 0 0 1-.066-.013c-.021-.009-.04-.021-.056-.037s-.029-.035-.037-.056-.013-.043-.013-.066v-7.945c-.001-.023.003-.046.012-.067s.021-.041.037-.057.035-.029.056-.038.044-.013.067-.013.046.005.067.013a.17.17 0 0 1 .093.095.17.17 0 0 1 .012.067v7.945c0 .023-.004.045-.013.066s-.021.04-.037.056a.17.17 0 0 1-.056.037c-.021.009-.043.013-.066.013z"/><path d="M15.66 52.398a.17.17 0 0 1-.105-.036c-.03-.023-.052-.056-.061-.093s-.006-.076.009-.111.042-.064.075-.082l.89-.479a.17.17 0 0 1 .13-.013c.043.013.08.043.102.083s.026.087.013.13-.043.08-.083.102l-.89.479a.17.17 0 0 1-.081.02zm-.025 1.06c-.028 0-.056-.007-.081-.02l-1.012-.545c-.04-.022-.07-.058-.083-.102s-.008-.09.013-.13a.17.17 0 0 1 .101-.083c.043-.013.09-.008.13.013l1.012.545a.17.17 0 0 1 .085.193.17.17 0 0 1-.166.129h0z"/></g><g opacity=".2" class="C"><path d="M16.533 49.116c-.157.159-.422.037-.662-.201s-.366-.502-.209-.66.479-.095.72.143.308.559.151.718z"/></g><path d="M15.541 58.631c-1.311-1.253.089-2.109 2.1-1.469-.496-.646.057-1.393.904-.872-1.133-1.61.853-2.908 2.036-1.807v4.148h-5.04z" fill="#30ce52"/><g class="D C"><path d="M15.541 58.631h.027c-.757-.997.291-1.651 1.891-1.307.038.008.078.007.116-.004s.072-.03.101-.058a.24.24 0 0 0 .072-.214c-.057-.378.207-.69.629-.642.151.017.27-.128.216-.269-.486-1.273.923-2.197 1.988-1.58v-.075c-1.184-1.101-3.169.197-2.036 1.807-.846-.522-1.4.226-.904.872-2.011-.641-3.411.215-2.1 1.469z"/></g><path d="M20.58 58.811h-5.04a.18.18 0 0 1-.124-.05c-.726-.694-.599-1.194-.459-1.43.319-.538 1.254-.706 2.346-.448-.068-.263-.018-.526.152-.715.138-.153.381-.268.694-.22-.293-.724-.018-1.329.363-1.661.53-.462 1.478-.597 2.19.066.018.017.033.037.042.06a.18.18 0 0 1 .015.072v4.148a.18.18 0 0 1-.053.127c-.017.017-.037.03-.058.039s-.045.014-.069.014zm-4.966-.36H20.4v-3.887c-.55-.461-1.253-.354-1.651-.007-.361.315-.566.909-.058 1.63a.18.18 0 0 1 .032.116c-.003.041-.02.08-.049.111a.18.18 0 0 1-.225.03c-.301-.185-.579-.199-.727-.035-.117.13-.143.379.06.644a.18.18 0 0 1 .005.213.18.18 0 0 1-.09.067c-.036.012-.076.013-.112.001-1.208-.385-2.096-.194-2.319.181-.139.236-.013.574.347.937z" class="B"/><path d="M44.029 22.376c.021-.087-.034-.175-.121-.195s-.175.033-.195.121.033.175.121.195.175-.034.195-.121z" class="C"/><path d="M44.083 16.034h-24v40h24v-40z" fill="#fff3a9"/><g class="E B"><path d="M31.384 56.714h-8.55l1.049-1.889h8.55l-1.049 1.889z"/></g><g class="E B"><path d="M43.792 30.966v1.648H21.605v14.22h-1.231V30.966h23.418z"/></g><g class="E B"><path d="M43.792 16.064v1.565H21.605v13.504h-1.231V16.064h23.418z"/></g><g class="E B"><path d="M22.836 46.833c0 1.06-.54 1.736-1.23 2.028v7.863h-1.231v-9.891h2.462z"/></g><g class="E B"><use xlink:href="#C"/></g><g class="E B"><use xlink:href="#C" x="4.117"/></g><g class="E B"><use xlink:href="#C" x="8.234"/></g><g class="E B"><use xlink:href="#C" x="12.352"/></g><g class="E B"><use xlink:href="#C" x="16.469"/></g><g class="D C"><path d="M43.845 32.613h-.848v24.11h.848v-24.11z"/></g><path d="M43.794 57.009H20.376c-.076 0-.149-.03-.202-.084s-.084-.127-.084-.202V30.965c0-.076.03-.149.084-.202s.127-.084.202-.084h23.418c.076 0 .149.03.202.084s.084.126.084.202v25.758c0 .076-.03.149-.084.202s-.127.084-.202.084zm-23.132-.572h22.845V31.251H20.662v25.185z" class="B"/><use xlink:href="#C" x="-3.104" y="-1.255" class="C"/><use xlink:href="#C" x="1.014" y="-1.255" class="F"/><use xlink:href="#C" x="5.131" y="-1.255" class="C"/><use xlink:href="#C" x="9.248" y="-1.255" class="F"/><path d="M36.2 45.578c0 2.925 4.117 2.925 4.117 0H36.2z" class="C"/><use xlink:href="#C" x="17.482" y="-1.255" class="F"/><g class="B"><path d="M21.79 48.057c-.613 0-1.185-.223-1.612-.627-.48-.454-.733-1.095-.733-1.853-.001-.038.006-.076.02-.112s.035-.068.062-.095.058-.049.094-.064.073-.022.111-.022.076.008.111.022.067.036.094.064.048.06.062.095.021.073.02.112c0 1.311.919 1.907 1.772 1.907s1.772-.597 1.772-1.907c-.001-.038.006-.076.02-.112s.035-.068.062-.095.059-.049.094-.064.073-.022.111-.022.076.008.111.022.067.036.094.064.047.06.061.095.021.073.02.112c0 .758-.253 1.399-.733 1.853a2.33 2.33 0 0 1-1.612.627z"/><path d="M25.907 48.057c-.613 0-1.185-.223-1.612-.627-.48-.454-.733-1.095-.733-1.853-.001-.038.006-.076.02-.112s.035-.068.062-.095.059-.049.094-.064.073-.022.111-.022.076.008.111.022.067.036.094.064.048.06.062.095.021.073.02.112c0 1.311.919 1.907 1.773 1.907s1.773-.597 1.773-1.907c0-.076.03-.149.084-.202s.126-.084.202-.084.149.03.202.084.084.126.084.202c0 .758-.253 1.399-.733 1.853-.427.403-.999.626-1.612.626z"/><path d="M30.024 48.057c-.613 0-1.185-.222-1.612-.627-.48-.454-.733-1.095-.733-1.853 0-.076.03-.149.084-.202s.126-.084.202-.084.149.03.202.084.084.126.084.202c0 1.311.919 1.907 1.773 1.907s1.773-.597 1.773-1.907c0-.076.03-.149.084-.202s.126-.084.202-.084.149.03.202.084.084.126.084.202c0 .758-.253 1.399-.733 1.853a2.33 2.33 0 0 1-1.612.627z"/><path d="M34.142 48.057c-.613 0-1.185-.223-1.612-.627-.48-.454-.733-1.095-.733-1.853 0-.076.03-.149.084-.202s.126-.084.202-.084.149.03.202.084.084.126.084.202c0 1.311.919 1.907 1.773 1.907s1.773-.597 1.773-1.907c-.001-.038.006-.076.02-.112s.035-.068.062-.095.059-.049.094-.064.073-.022.111-.022.076.008.111.022.067.036.094.064.048.06.062.095.021.073.02.112c0 .758-.253 1.399-.733 1.853-.427.404-.998.627-1.612.627z"/><path d="M38.259 48.057c-.613 0-1.185-.223-1.612-.627-.48-.454-.733-1.095-.733-1.853-.001-.038.006-.076.02-.112s.035-.068.062-.095.059-.049.094-.064.073-.022.111-.022.076.008.111.022.067.036.094.064.048.06.062.095.021.073.02.112c0 1.311.919 1.907 1.772 1.907s1.773-.597 1.773-1.907c-.001-.038.006-.076.02-.112s.035-.068.062-.095.059-.049.094-.064.073-.022.111-.022.076.008.111.022.067.036.094.064.048.06.062.095.021.073.02.112c0 .758-.254 1.399-.733 1.853a2.33 2.33 0 0 1-1.612.627z"/><path d="M42.376 48.057c-.613 0-1.185-.223-1.612-.627-.48-.454-.733-1.095-.733-1.853-.001-.038.006-.076.02-.112s.035-.068.062-.095.059-.049.094-.064.073-.022.111-.022.076.008.111.022.067.036.094.064.048.06.061.095.021.073.02.112c0 1.311.919 1.907 1.772 1.907s1.773-.597 1.773-1.907c-.001-.038.006-.076.02-.112s.035-.068.061-.095.059-.049.094-.064.073-.022.111-.022.076.008.111.022.067.036.094.064.048.06.062.095.021.073.02.112c0 .758-.253 1.399-.733 1.853a2.33 2.33 0 0 1-1.612.627z"/></g><path d="M21.679 41.016h20.809c.256 0 .509.05.745.148s.451.241.632.422.324.395.422.632.148.489.148.745v2.615H19.731v-2.615c0-.256.05-.509.148-.745s.241-.451.422-.632.396-.324.632-.422.489-.148.745-.148z" class="C"/><path d="M44.435 42.962v2.615H19.731v-2.615c0-.256.05-.509.148-.745s.241-.451.422-.632.396-.324.632-.422.49-.148.745-.147h20.809c.256 0 .509.05.745.148a1.95 1.95 0 0 1 .632.422c.181.181.324.395.422.632s.148.489.148.745z" class="F"/><g opacity=".66" class="C"><path d="M44.435 42.962v.548c0-.516-.205-1.011-.571-1.376a1.95 1.95 0 0 0-1.376-.57H21.679c-.256 0-.509.05-.745.147s-.451.241-.632.422-.324.395-.422.632-.148.49-.148.745v-.548c0-.256.05-.509.148-.745s.241-.451.422-.632.396-.324.632-.422.49-.148.745-.147h20.809c.256 0 .509.05.745.148a1.95 1.95 0 0 1 .632.422c.181.181.324.395.422.632s.148.489.148.745z"/></g><path d="M40.318 41.016h-4.001v4.562h4.001v-4.562zm-8.22 0h-4.001v4.562h4.001v-4.562zm-8.293 0v4.562h-4.001v-3.141a1.96 1.96 0 0 1 1.888-1.421h2.113z" class="C"/><path d="M44.435 45.864H19.731c-.076 0-.149-.03-.202-.084s-.084-.126-.084-.202v-2.615c0-1.232 1.002-2.233 2.233-2.233h20.81c1.232 0 2.233 1.002 2.233 2.233v2.616c0 .076-.03.148-.084.202s-.126.084-.202.084zm-24.416-.572h24.129v-2.329c-.001-.44-.176-.862-.487-1.174s-.733-.486-1.174-.487H21.678c-.44.001-.863.176-1.174.487s-.486.733-.487 1.174l.001 2.329z" class="B"/><g class="E C"><path d="M42.519 42.687H22.96a.48.48 0 0 0-.479.479v.581a.48.48 0 0 0 .479.478h19.559a.48.48 0 0 0 .479-.478v-.581a.48.48 0 0 0-.479-.479z"/></g><path d="M32.431 53.701h-8.445c-.178 0-.323.145-.323.323v.509c0 .178.145.323.323.323h8.445c.178 0 .323-.145.323-.323v-.509c0-.178-.145-.323-.323-.323z" class="G"/><g class="D C"><path d="M32.754 54.023v.509c0 .042-.008.084-.025.124s-.04.075-.07.105-.066.054-.105.07-.081.025-.124.025h-.671c.086 0 .168-.034.229-.095s.095-.143.095-.229v-.509c0-.086-.034-.168-.095-.228s-.143-.095-.228-.095h.671c.086 0 .168.034.229.095s.095.143.095.228z"/></g><path d="M32.431 55.11h-8.445a.58.58 0 0 1-.578-.578v-.509a.58.58 0 0 1 .578-.578h8.445a.58.58 0 0 1 .578.578v.509a.58.58 0 0 1-.578.578zm-8.445-1.155c-.018 0-.036.007-.049.02s-.02.03-.02.049v.509c0 .018.007.036.02.049s.03.02.049.02h8.445c.018 0 .036-.007.049-.02s.02-.03.02-.049v-.509c0-.018-.007-.036-.02-.049s-.03-.02-.049-.02h-8.445z" class="B"/><path d="M32.146 49.026H24.27V53.7h7.877v-4.674z" class="H"/><g class="D C"><path d="M29.667 49.026L25.57 53.7h-1.3v-.1l4.009-4.573h1.389z"/></g><g class="D C"><path d="M31.691 49.026L27.594 53.7h-.867l4.098-4.674h.866z"/></g><path d="M32.147 53.955H24.27c-.033 0-.067-.007-.097-.019s-.059-.032-.083-.055-.042-.052-.055-.082-.019-.064-.019-.097v-4.674c0-.033.007-.066.019-.097s.032-.059.055-.082.052-.042.083-.055.064-.019.097-.019h7.877c.068 0 .132.027.18.075s.075.112.075.18v4.674c0 .033-.007.066-.019.097s-.032.059-.055.082-.052.042-.083.055-.064.019-.097.019zm-7.622-.509h7.368v-4.165h-7.368v4.165z" class="B"/><use xlink:href="#D" class="G"/><g class="D C"><path d="M29.096 38.037v.668c0 .065-.026.127-.071.172s-.108.071-.172.071h-.526a.24.24 0 0 0 .093-.019c.029-.012.056-.03.079-.053s.041-.049.053-.079.018-.061.018-.093v-.668c0-.065-.026-.127-.071-.172s-.108-.072-.172-.072h.526c.065 0 .127.026.172.072s.071.108.071.172z"/></g><use xlink:href="#E" class="B"/><path d="M28.73 33.755h-4.737v4.038h4.737v-4.038z" class="H"/><g class="D C"><use xlink:href="#F"/></g><g class="D C"><use xlink:href="#G"/></g><path d="M28.73 38.047h-4.737c-.067 0-.132-.027-.18-.075s-.075-.112-.075-.18v-4.038c0-.033.007-.066.019-.097s.032-.059.055-.083.052-.042.082-.055.064-.019.097-.019h4.737c.033 0 .066.007.097.019s.059.032.082.055.042.052.055.083.019.064.019.097v4.038c0 .067-.027.132-.075.18s-.112.075-.18.075zm-4.483-.509h4.229v-3.528h-4.229v3.528z" class="B"/><g class="E B"><path d="M27.918 40.836H22.82l1.049-1.889h5.098l-1.049 1.889z"/></g><use xlink:href="#H" class="G"/><g class="D C"><path d="M40.54 38.037v.668a.24.24 0 0 1-.071.172.24.24 0 0 1-.172.071h-.526c.065 0 .127-.026.172-.071s.071-.108.071-.172v-.668c0-.065-.026-.127-.071-.172s-.108-.072-.172-.072h.526c.065 0 .127.026.172.072s.071.108.071.172z"/></g><use xlink:href="#I" class="B"/><path d="M40.173 33.755h-4.737v4.038h4.737v-4.038z" class="H"/><g class="D C"><use xlink:href="#F" x="11.443"/></g><g class="D C"><use xlink:href="#G" x="11.443"/></g><path d="M40.173 38.047h-4.737c-.067 0-.132-.027-.18-.075s-.075-.112-.075-.18v-4.038c0-.033.007-.066.019-.097s.032-.059.055-.083.052-.042.083-.055.064-.019.097-.019h4.737c.033 0 .067.007.097.019s.059.032.083.055.042.052.055.083.019.064.019.097v4.038c0 .067-.027.132-.075.18s-.112.075-.18.075zm-4.483-.509h4.229v-3.528H35.69v3.528z" class="B"/><g class="E B"><path d="M39.361 40.836h-5.098l1.049-1.889h5.098l-1.049 1.889z"/></g><use xlink:href="#D" y="-13.136" class="G"/><g class="D C"><path d="M29.096 24.901v.668c0 .065-.026.127-.071.172s-.108.071-.172.071h-.526c.032 0 .064-.006.093-.018s.056-.03.079-.053.041-.049.053-.079.018-.061.018-.093v-.668c0-.065-.026-.127-.071-.172s-.108-.072-.172-.072h.526c.065 0 .127.026.172.072s.071.108.071.172z"/></g><use xlink:href="#E" y="-13.136" class="B"/><path d="M28.73 20.619h-4.737v4.038h4.737v-4.038z" class="H"/><g class="D C"><use xlink:href="#F" y="-13.136"/></g><g class="D C"><use xlink:href="#G" y="-13.136"/></g><path d="M28.73 24.911h-4.737c-.067 0-.132-.027-.18-.074s-.075-.112-.075-.18v-4.038c0-.033.007-.067.019-.097s.032-.059.055-.082.052-.042.082-.055.064-.019.097-.019h4.737c.033 0 .066.006.097.019s.059.031.082.055.042.052.055.082.019.064.019.097v4.038c0 .067-.027.132-.075.18s-.112.074-.18.074zm-4.483-.509h4.229v-3.529h-4.229v3.529z" class="B"/><g class="E B"><path d="M27.918 27.701H22.82l1.049-1.889h5.098l-1.049 1.889z"/></g><use xlink:href="#H" y="-13.136" class="G"/><g class="D C"><path d="M40.54 24.901v.668a.24.24 0 0 1-.018.093c-.012.03-.03.056-.053.079s-.049.041-.079.053-.061.018-.093.018h-.526c.065 0 .127-.026.172-.071s.071-.108.071-.172v-.668c0-.065-.026-.127-.071-.172s-.108-.072-.172-.072h.526c.065 0 .127.026.172.072s.071.108.071.172z"/></g><use xlink:href="#I" y="-13.136" class="B"/><path d="M40.173 20.619h-4.737v4.038h4.737v-4.038z" class="H"/><g class="D C"><use xlink:href="#F" x="11.443" y="-13.136"/></g><g class="D C"><use xlink:href="#G" x="11.443" y="-13.136"/></g><path d="M40.173 24.911h-4.737c-.067 0-.132-.027-.18-.074s-.075-.112-.075-.18v-4.038c0-.033.007-.067.019-.097s.032-.059.055-.082.052-.042.083-.055.064-.019.097-.019h4.737c.033 0 .067.006.097.019s.059.031.083.055.042.052.055.082.019.064.019.097v4.038c0 .067-.027.132-.075.18s-.112.074-.18.074zm-4.483-.509h4.229v-3.529H35.69v3.529z" class="B"/><g class="E B"><path d="M39.361 27.701h-5.098l1.049-1.889h5.098l-1.049 1.889z"/></g><path d="M44.237 56.724H19.929c-.109 0-.197.088-.197.197v1.548c0 .109.088.197.197.197h24.308c.109 0 .197-.088.197-.197v-1.548c0-.109-.088-.197-.197-.197z" class="G"/><g class="D C"><path d="M44.435 56.921v1.548c0 .026-.005.052-.015.076s-.024.046-.043.064-.04.033-.064.043-.05.015-.076.015h-.743c.026 0 .052-.005.076-.015s.046-.024.064-.043.033-.04.043-.064.015-.05.015-.076v-1.548c0-.026-.005-.052-.015-.075s-.024-.046-.043-.064-.04-.033-.064-.043-.05-.015-.075-.015h.743c.052 0 .102.021.139.058s.058.087.058.139z"/></g><g class="E B"><path d="M21.582 58.666h-1.653c-.026 0-.052-.005-.075-.015s-.046-.024-.064-.043-.033-.04-.043-.064-.015-.05-.015-.076v-1.548c0-.052.021-.102.058-.139s.087-.058.139-.058h1.653c-.052 0-.102.021-.139.058s-.058.087-.058.139v1.548a.2.2 0 0 0 .015.076c.01.024.024.046.043.064s.04.033.064.043.05.015.075.015z"/></g><path d="M44.237 58.953H19.929c-.128 0-.251-.051-.342-.142s-.142-.214-.142-.342v-1.548c0-.128.051-.251.142-.342s.213-.142.342-.142h24.308c.128 0 .251.051.342.142s.142.213.142.342v1.548c0 .128-.051.251-.142.342s-.214.142-.342.142zm-24.219-.572h24.131V57.01H20.018v1.371z" class="B"/><path d="M40.986 49.026h-5.276v7.697h5.276v-7.697z" class="H"/><g class="D C"><path d="M40.986 49.026v.724l-5.277 6.019v-1.584l4.522-5.159h.754z"/></g><g class="D C"><path d="M40.985 51.072v.988l-4.089 4.664h-.866l4.955-5.652z"/></g><g class="B"><path d="M40.986 57.01h-5.277c-.076 0-.149-.03-.202-.084s-.084-.127-.084-.202v-7.696c0-.076.03-.149.084-.202s.126-.084.202-.084h5.277c.076 0 .149.03.202.084s.084.127.084.202v7.696c0 .076-.03.149-.084.202s-.126.084-.202.084zm-4.991-.572h4.704v-7.124h-4.704v7.124z"/><path d="M38.347 56.946a.22.22 0 0 1-.157-.065c-.041-.042-.065-.098-.065-.157v-7.696a.22.22 0 0 1 .065-.157c.042-.041.098-.065.157-.065a.22.22 0 0 1 .157.065c.041.042.065.098.065.157v7.696a.22.22 0 0 1-.065.157c-.042.041-.098.065-.157.065zm.673-3.584c-.021 0-.042-.004-.061-.012s-.037-.02-.052-.035-.026-.032-.035-.051-.012-.04-.012-.061v-.329a.16.16 0 0 1 .27-.109c.03.029.047.068.048.109v.329c0 .042-.017.083-.047.112s-.07.047-.112.047zm-1.346 0c-.042 0-.082-.017-.112-.047s-.047-.07-.047-.112v-.329a.16.16 0 0 1 .159-.154.16.16 0 0 1 .159.154v.329c0 .021-.004.042-.012.061a.15.15 0 0 1-.035.051.19.19 0 0 1-.052.035c-.02.009-.04.012-.061.012z"/></g><path d="M43.8 12.353H20.365c-.35 0-.634.284-.634.634v2.346c0 .35.284.634.634.634H43.8c.35 0 .634-.284.634-.634v-2.346c0-.35-.284-.634-.634-.634z" class="F"/><g opacity=".66" class="C"><path d="M44.435 12.986v2.346c0 .083-.016.166-.048.243a.63.63 0 0 1-.137.206c-.059.059-.129.106-.206.137s-.159.048-.243.048h-.008v-2.568a.39.39 0 0 0-.114-.274c-.073-.073-.172-.114-.275-.114H19.731v-.024c0-.168.067-.329.186-.448s.28-.186.448-.186H43.8c.083 0 .166.016.243.048s.147.079.206.137.106.129.138.206.048.159.048.243z"/></g><path d="M43.8 16.252H20.366a.92.92 0 0 1-.92-.92v-2.346a.92.92 0 0 1 .92-.92H43.8a.92.92 0 0 1 .92.92v2.346a.92.92 0 0 1-.92.92zm-23.435-3.613a.35.35 0 0 0-.348.348v2.346a.35.35 0 0 0 .102.246c.065.065.154.102.246.102H43.8c.092 0 .181-.037.246-.102a.35.35 0 0 0 .102-.246v-2.346c0-.092-.037-.181-.102-.246a.35.35 0 0 0-.246-.102H20.366z" class="B"/><path d="M36.831 5.286h-9.496c-.538 0-.975.437-.975.975v3.846c0 .539.437.975.975.975h9.496c.538 0 .975-.436.975-.975V6.261c0-.538-.437-.975-.975-.975z" class="F"/><g opacity=".66" class="C"><path d="M37.806 6.262v3.845c0 .187-.054.371-.155.528s-.246.283-.417.36V6.574c0-.09-.018-.179-.052-.262s-.085-.159-.148-.222-.139-.114-.222-.148-.172-.052-.262-.052H26.472l-.039.001c.073-.179.198-.332.358-.44s.349-.165.543-.165h9.496c.128 0 .255.025.373.074s.226.121.316.212.162.198.211.316.074.245.074.373z"/></g><g class="B"><path d="M36.831 11.368h-9.496a1.26 1.26 0 0 1-.891-.37c-.236-.236-.369-.557-.37-.891V6.261c0-.334.133-.655.37-.891s.557-.369.891-.37h9.496c.334 0 .655.133.891.37s.369.557.37.891v3.846c0 .334-.133.655-.37.891a1.26 1.26 0 0 1-.891.37zm-9.496-5.796a.69.69 0 0 0-.688.689v3.846a.69.69 0 0 0 .688.688h9.496a.69.69 0 0 0 .689-.688V6.261a.69.69 0 0 0-.689-.689h-9.496z"/><path d="M28.734 11.081h-.572v1.27h.572v-1.27zm7.27 0h-.572v1.27h.572v-1.27zm-24.675 47.49l.649-.092.649-.058.649-.035.324-.01.324-.008 1.297-.011 1.297.013 1.297.009h31.131l1.297-.019 1.297.027.649.062.324.05.324.07c.021.006.04.018.053.035s.02.038.02.06-.007.043-.02.06-.032.03-.053.035l-.324.07-.324.05-.649.062-1.297.028-1.297-.019H17.815l-1.297.009-1.297.013c-.432.002-.865-.002-1.297-.011l-.324-.008-.324-.01-.649-.034-.649-.058-.649-.092c-.022-.004-.042-.016-.057-.033s-.023-.039-.023-.062.008-.045.023-.062.035-.029.057-.033z"/></g><mask id="A" class="C"><path d="M20.083 16.334a.3.3 0 0 1 .3-.3h23.39a.3.3 0 0 1 .3.3v14.7h-23.99v-14.7z"/></mask><path d="M20.083 16.334a.3.3 0 0 1 .3-.3h23.39a.3.3 0 0 1 .3.3v14.7h-23.99v-14.7z" stroke="#390075" stroke-width="1.1" mask="url(#A)"/><path d="M29.929 8.212l.168-.442-.462-1.173h.34l.269.784.271-.784h.331l-.614 1.615h-.304zm1.173-.559c-.121-.118-.182-.268-.182-.451s.061-.334.184-.453.278-.182.462-.182.338.061.462.182.186.272.186.453a.6.6 0 0 1-.184.451c-.121.118-.276.177-.465.177s-.342-.059-.465-.177zm.136-.451c0 .101.031.185.092.251s.142.097.237.097.176-.032.237-.097.094-.149.094-.251-.032-.187-.094-.253a.31.31 0 0 0-.237-.101.31.31 0 0 0-.237.101c-.061.066-.092.15-.092.253zm1.567.628c-.278 0-.416-.179-.416-.538v-.695h.317v.731c0 .064.019.117.057.156s.087.06.143.06a.2.2 0 0 0 .154-.062.23.23 0 0 0 .06-.163v-.722h.317V7.8h-.311v-.14c-.029.046-.072.086-.129.12a.37.37 0 0 1-.193.051zm1.513-.941c-.216 0-.324.129-.324.386V7.8h-.317V6.597h.31v.175c.028-.061.071-.11.129-.147a.36.36 0 0 1 .202-.058v.322zm-6.045 2.538a.36.36 0 0 1 .129-.287.5.5 0 0 1 .338-.11.45.45 0 0 1 .26.067v-.078a.16.16 0 0 0-.058-.129c-.038-.032-.092-.048-.161-.048a.7.7 0 0 0-.32.085l-.12-.216a.84.84 0 0 1 .214-.101c.086-.028.172-.041.26-.041.181 0 .31.042.386.127s.115.198.115.345V9.8h-.281l-.021-.078c-.068.072-.165.108-.292.108a.49.49 0 0 1-.322-.108c-.086-.074-.129-.172-.129-.294zm.375-.129c-.038.031-.058.071-.058.12s.02.089.06.12.09.046.149.046a.24.24 0 0 0 .149-.044c.038-.031.058-.071.058-.122s-.019-.093-.058-.122-.089-.046-.152-.046-.111.016-.149.048zm1.089.589a.72.72 0 0 0 .343.083c.221 0 .331-.08.331-.239v-.055c-.012.017-.031.036-.055.058a.51.51 0 0 1-.12.064c-.055.021-.114.032-.177.032-.173 0-.313-.058-.419-.175s-.156-.268-.156-.455.054-.337.163-.455.251-.177.423-.177c.089 0 .164.018.225.053s.107.068.133.104v-.127h.299v1.051c0 .21-.059.361-.177.453s-.274.14-.469.14a.9.9 0 0 1-.442-.11l.097-.244zm.683-.69c0-.103-.029-.186-.087-.251a.28.28 0 0 0-.223-.099.28.28 0 0 0-.221.097c-.057.064-.085.149-.085.253s.028.189.085.255.133.097.223.097.166-.032.223-.097.085-.149.085-.255zm.484.005c0-.182.055-.334.166-.453a.55.55 0 0 1 .423-.182c.184 0 .327.057.43.172s.154.27.154.469l-.002.069h-.846c.003.081.034.148.092.2s.132.076.221.076c.127 0 .225-.049.292-.147l.209.159a.55.55 0 0 1-.179.179.58.58 0 0 1-.327.085c-.19 0-.343-.058-.46-.175s-.172-.269-.172-.453zm.851-.131c-.003-.074-.028-.133-.076-.177s-.108-.067-.182-.067-.133.023-.179.069-.073.104-.081.175h.518zm1.131-.504c.277 0 .416.179.416.538V9.8h-.317v-.731c0-.064-.02-.117-.06-.156s-.085-.06-.14-.06c-.064 0-.117.021-.156.064s-.057.095-.057.161V9.8h-.317V8.597h.31v.14c.029-.046.072-.086.129-.12a.37.37 0 0 1 .193-.051zm1.248.982c.093 0 .184-.036.271-.108l.085.26c-.107.086-.232.129-.375.129-.187 0-.341-.059-.462-.177s-.179-.268-.179-.451a.61.61 0 0 1 .182-.453c.123-.121.275-.182.458-.182.141 0 .268.043.38.129l-.09.267c-.084-.077-.178-.115-.281-.115a.31.31 0 0 0-.241.101c-.06.067-.09.151-.09.251s.032.187.097.253.146.097.246.097zm.718.662l.168-.442-.462-1.173h.34l.269.784.271-.784h.331l-.614 1.615h-.304z" class="C"/><path d="M47.059 56.848H45.92v1.854h1.139v-1.854z" fill="#758b9b"/><g class="D C"><path d="M47.059 56.907H45.92v.3h1.139v-.3z"/></g><g class="B"><path d="M47.06 58.882H45.92a.18.18 0 0 1-.18-.18v-1.696a.34.34 0 0 1 .337-.337h.824c.09 0 .175.035.239.099s.099.149.099.239v1.696a.18.18 0 0 1-.179.18zm-.96-.36h.78v-1.494h-.78v1.494z"/><path d="M46.49 57.027a.18.18 0 0 1-.18-.18v-5.862a.18.18 0 0 1 .18-.175.18.18 0 0 1 .18.175v5.862a.18.18 0 0 1-.18.18z"/></g><path d="M47.224 50.863h-1.469v.675h1.469v-.675z" fill="#758b9b"/><g class="D C"><path d="M47.224 50.864h-.337v.675h.337v-.675z"/></g><path d="M47.224 51.718h-1.469a.18.18 0 0 1-.18-.18v-.675a.18.18 0 0 1 .18-.18h1.469a.18.18 0 0 1 .18.18v.675a.18.18 0 0 1-.18.18zm-1.289-.36h1.11v-.315h-1.11v.315z" class="B"/><path d="M46.49 50.863c.814 0 1.473-.66 1.473-1.473s-.66-1.473-1.473-1.473-1.473.66-1.473 1.473.66 1.473 1.473 1.473z" fill="#f7c414"/><g class="E B"><path d="M47.798 50.067c-.102.197-.247.369-.424.502s-.383.224-.601.267-.442.036-.657-.021-.414-.16-.583-.304-.303-.325-.392-.528-.132-.424-.124-.646.066-.439.169-.635.25-.367.429-.498c-.153.295-.201.634-.137.96a1.47 1.47 0 0 0 .489.837c.253.216.571.34.904.352s.659-.089.926-.286z"/></g><g class="D C"><path d="M47.963 49.391a1.47 1.47 0 0 1-.526 1.128c.15-.229.233-.495.241-.768a1.47 1.47 0 0 0-.199-.779c-.328.353-.955-.231-.627-.584-.257-.125-.544-.173-.827-.137s-.55.152-.769.336c.173-.266.428-.469.726-.578s.623-.12.928-.029.571.277.761.531.293.563.293.881z"/></g><path d="M46.49 51.043c-.912 0-1.653-.742-1.653-1.653s.742-1.653 1.653-1.653 1.653.742 1.653 1.653-.741 1.653-1.653 1.653zm0-2.946c-.256 0-.506.076-.718.218s-.379.344-.476.58-.123.496-.074.747.173.481.354.662.411.304.662.354.511.024.747-.074.438-.264.58-.476.218-.463.218-.718c0-.343-.137-.672-.379-.914s-.571-.379-.914-.379z" class="B"/><defs ><path id="C" d="M22.835 46.833c0 2.925 4.117 2.925 4.117 0h-4.117z"/><path id="D" d="M28.853 37.793h-4.984c-.135 0-.244.109-.244.244v.668c0 .135.109.244.244.244h4.984c.135 0 .244-.109.244-.244v-.668c0-.135-.109-.244-.244-.244z"/><path id="E" d="M28.853 39.203h-4.984a.5.5 0 0 1-.498-.498v-.668a.5.5 0 0 1 .498-.498h4.984a.5.5 0 0 1 .498.498v.668a.5.5 0 0 1-.498.498zm-4.973-.509h4.962v-.646H23.88v.646z"/><path id="F" d="M28.184 33.755l-3.334 4.038h-.857v-.512l2.911-3.526h1.28z"/><path id="G" d="M28.729 34.286v.935l-2.122 2.57h-.773l2.895-3.506z"/><path id="H" d="M40.297 37.793h-4.984c-.135 0-.244.109-.244.244v.668c0 .135.109.244.244.244h4.984c.134 0 .244-.109.244-.244v-.668c0-.135-.109-.244-.244-.244z"/><path id="I" d="M40.296 39.203h-4.984a.5.5 0 0 1-.498-.498v-.668a.5.5 0 0 1 .498-.498h4.984a.5.5 0 0 1 .498.498v.668a.5.5 0 0 1-.498.498zm-4.973-.509h4.962v-.646h-4.962v.646z"/></defs></svg>